<svg xmlns="http://www.w3.org/2000/svg" xmlns:xlink="http://www.w3.org/1999/xlink" version="1.1" x="0px" y="0px" viewBox="0 0 26 32.5" style="enable-background:new 0 0 26 26;" xml:space="preserve"><path d="M23.95,10.17C23.53,6.7,20.58,4,17,4H9c-3.58,0-6.53,2.7-6.95,6.17C0.86,10.57,0,11.68,0,13v9c0,0.55,0.45,1,1,1h2v2  c0,0.55,0.45,1,1,1s1-0.45,1-1v-2h16v2c0,0.55,0.45,1,1,1s1-0.45,1-1v-2h2c0.55,0,1-0.45,1-1v-9C26,11.68,25.14,10.57,23.95,10.17z   M9,6h8c2.49,0,4.54,1.83,4.92,4.21c-1.1,0.43-1.89,1.48-1.92,2.73L19.66,16H6.34L6,12.94c-0.02-1.25-0.82-2.3-1.92-2.73  C4.46,7.83,6.51,6,9,6z M24,21H2v-8c0-0.55,0.45-1,1-1s1,0.45,1,1c0,0.04,0,0.07,0.01,0.11l0.44,4C4.51,17.62,4.93,18,5.44,18h15.11  c0.51,0,0.94-0.38,0.99-0.89l0.44-4C22,13.07,22,13.04,22,13c0-0.55,0.45-1,1-1s1,0.45,1,1V21z"/><text x="0" y="41" fill="#000000" font-size="5px" font-weight="bold" font-family="'Helvetica Neue', Helvetica, Arial-Unicode, Arial, Sans-serif">Created by Pawinee E.</text><text x="0" y="46" fill="#000000" font-size="5px" font-weight="bold" font-family="'Helvetica Neue', Helvetica, Arial-Unicode, Arial, Sans-serif">from the Noun Project</text></svg>