<svg xmlns="http://www.w3.org/2000/svg" xmlns:xlink="http://www.w3.org/1999/xlink" xml:space="preserve" version="1.1" style="shape-rendering:geometricPrecision;text-rendering:geometricPrecision;image-rendering:optimizeQuality;" viewBox="0 0 245.71 307.1375" x="0px" y="0px" fill-rule="evenodd" clip-rule="evenodd"><defs><style type="text/css">
   
    .fil0 {fill:black}
   
  </style></defs><g><path class="fil0" d="M245.71 193.21l-193.21 -193.21c-58.96,58.96 -75.47,141.4 -11.83,205.04 63.64,63.64 146.08,47.13 205.04,-11.83zm-169.7 -117.01c-3.05,8.56 16.6,5.92 16.6,5.92 0,0 -13.37,-14.96 -16.6,-5.92zm93.5 93.5c-8.56,3.06 -5.92,-16.6 -5.92,-16.6 0,0 14.97,13.37 5.92,16.6zm-98.86 -29.7c3.71,8.3 16.09,-7.2 16.09,-7.2 0,0 -20.01,-1.57 -16.09,7.2zm35.06 35.06c-8.3,-3.71 7.2,-16.09 7.2,-16.09 0,0 1.57,20.01 -7.2,16.09zm-88.21 -61.69l107.89 0 -76.28 76.28c-19.94,-21.62 -30.47,-48.8 -31.6,-76.28zm114.85 -9.88l-114.85 0c1.19,-29.02 12.85,-57.69 35.01,-79.84l79.84 79.84zm-76.29 93.13l76.29 -76.29 -0 107.89c-27.49,-1.13 -54.67,-11.66 -76.29,-31.6zm86.17 31.6l0 -114.85 79.84 79.84c-22.15,22.16 -50.82,33.82 -79.84,35.01z"/></g><text x="0" y="260.71000000000004" fill="#000000" font-size="5px" font-weight="bold" font-family="'Helvetica Neue', Helvetica, Arial-Unicode, Arial, Sans-serif">Created by anak</text><text x="0" y="265.71000000000004" fill="#000000" font-size="5px" font-weight="bold" font-family="'Helvetica Neue', Helvetica, Arial-Unicode, Arial, Sans-serif">from the Noun Project</text></svg>